<svg width="58" height="58" viewBox="0 0 58 58" fill="none" xmlns="http://www.w3.org/2000/svg">
<circle cx="29" cy="29" r="29" fill="#1476B3"/>
<path d="M43.5 24.75H32.25V13.5C32.25 12.1195 31.1305 11 29.75 11H27.25C25.8695 11 24.75 12.1195 24.75 13.5V24.75H13.5C12.1195 24.75 11 25.8695 11 27.25V29.75C11 31.1305 12.1195 32.25 13.5 32.25H24.75V43.5C24.75 44.8805 25.8695 46 27.25 46H29.75C31.1305 46 32.25 44.8805 32.25 43.5V32.25H43.5C44.8805 32.25 46 31.1305 46 29.75V27.25C46 25.8695 44.8805 24.75 43.5 24.75Z" fill="white"/>
</svg>
